External Loads File
version=1
nRows=31
nColumns=13
Range=5.000000e-03-10 seconds
endheader
time 	forceRightX 	forceRightY 	forceRightZ 	pointRightX 	pointRightY 	pointRightZ 	forceLeftX 	forceLeftY 	forceLeftZ 	pointLeftX 	pointLeftY 	pointLeftZ 		
2.505000 -32.670570 477.517352 -0.000000 0.412043 0.474419 -0.193981 58.870257 43.523111 -0.000000 0.234271 0.181146 -0.443607
2.510000 -34.584306 503.974292 -0.000000 0.416307 0.469938 -0.194004 52.506089 24.854451 -0.000000 0.229715 0.184621 -0.443547
2.515000 -36.579404 528.495722 -0.000000 0.420606 0.465200 -0.193900 45.998208 5.795704 -0.000000 0.225224 0.189169 -0.443409
2.520000 -39.306945 551.069241 -0.000000 0.424890 0.460203 -0.194089 39.405169 -13.348644 -0.000000 0.220942 0.194053 -0.443315
2.525000 -42.984915 571.790325 -0.000000 0.429083 0.455037 -0.194236 32.874235 -32.269996 -0.000000 0.216831 0.199032 -0.443100
2.530000 -47.387442 590.816401 -0.000000 0.433074 0.449580 -0.194042 26.537171 -50.642323 -0.000000 0.212856 0.204130 -0.442984
2.535000 -52.132820 608.337760 -0.000000 0.437035 0.443895 -0.194027 20.410752 -68.144740 -0.000000 0.209106 0.209422 -0.442721
2.540000 -57.074520 624.563741 -0.000000 0.440926 0.438158 -0.194050 14.420719 -84.428391 -0.000000 0.205446 0.214935 -0.442343
2.545000 -62.298605 639.727641 -0.000000 0.444730 0.432232 -0.194081 8.511641 -99.059073 -0.000000 0.202059 0.220577 -0.442046
2.550000 -67.787579 654.098722 -0.000000 0.448415 0.426140 -0.194043 2.703024 -111.542081 -0.000000 0.198895 0.226305 -0.441606
2.555000 -73.477032 667.952782 -0.000000 0.451924 0.419972 -0.193957 -2.899952 -121.451981 -0.000000 0.195956 0.232240 -0.441285
2.560000 -79.380586 681.544619 -0.000000 0.455268 0.413596 -0.193975 -8.134516 -128.574201 -0.000000 0.193394 0.238256 -0.441057
2.565000 -85.383878 695.135991 -0.000000 0.458434 0.407151 -0.193952 -12.823457 -132.919639 -0.000000 0.190900 0.244293 -0.440876
2.570000 -91.476825 708.981350 -0.000000 0.461419 0.400546 -0.193948 -16.689889 -134.641784 -0.000000 0.188695 0.250370 -0.440870
2.575000 -97.389457 723.363606 -0.000000 0.464221 0.393789 -0.194099 -19.448633 -133.972716 -0.000000 0.186759 0.256577 -0.441024
2.580000 -103.361445 738.465856 -0.000000 0.466792 0.387070 -0.194274 -20.783976 -131.241383 -0.000000 0.184955 0.262912 -0.441174
2.585000 -109.820637 754.391475 -0.000000 0.469161 0.380497 -0.194367 -20.539771 -126.857786 -0.000000 0.183326 0.269287 -0.441268
2.590000 -115.056942 771.506876 -0.000000 0.471284 0.373349 -0.194540 -19.113869 -121.203942 -0.000000 0.181944 0.275731 -0.441357
2.595000 -120.006858 789.745923 -0.000000 0.473190 0.366184 -0.194677 -16.547950 -114.728328 -0.000000 0.180729 0.282277 -0.441443
2.600000 -124.583066 809.129549 -0.000000 0.474821 0.358929 -0.194794 -13.065429 -107.839854 -0.000000 0.179833 0.288876 -0.441607
2.605000 -128.020332 829.714330 -0.000000 0.476182 0.351529 -0.194862 -8.975899 -100.948373 -0.000000 0.179289 0.295659 -0.441767
2.610000 -131.230400 851.219444 -0.000000 0.477235 0.344266 -0.194903 -4.462989 -94.479598 -0.000000 0.178849 0.302432 -0.441849
2.615000 -132.630057 873.690843 -0.000000 0.477990 0.336750 -0.194907 -0.103842 -88.772631 -0.000000 0.178842 0.309327 -0.442132
2.620000 -133.261348 896.749902 -0.000000 0.478495 0.329537 -0.194797 3.831542 -84.075703 -0.000000 0.179071 0.316416 -0.442287
2.625000 -131.525187 920.417069 -0.000000 0.478704 0.321980 -0.194842 6.909243 -80.530192 -0.000000 0.179583 0.323537 -0.442340
2.630000 -128.356297 944.336951 -0.000000 0.478972 0.314444 -0.194431 9.023068 -78.172388 -0.000000 0.180409 0.330720 -0.442394
2.635000 -123.918973 968.257129 -0.000000 0.478826 0.306974 -0.194441 9.996855 -76.927044 -0.000000 0.181599 0.337925 -0.442377
2.640000 -117.771071 991.978026 -0.000000 0.478153 0.299470 -0.194335 9.620582 -76.610551 -0.000000 0.183119 0.345130 -0.442463
2.645000 -110.301108 1015.214230 -0.000000 0.477243 0.292026 -0.194187 7.863026 -76.957550 -0.000000 0.184944 0.352344 -0.442527
2.650000 -101.932856 1037.753595 -0.000000 0.476058 0.284628 -0.194105 4.873087 -77.702875 -0.000000 0.187061 0.359442 -0.442597
2.655000 -92.890954 1059.471282 -0.000000 0.474518 0.277332 -0.193966 0.890208 -78.632459 -0.000000 0.189617 0.366372 -0.442815
